<svg width="14" height="14" viewBox="0 0 14 14" fill="none" xmlns="http://www.w3.org/2000/svg">
<path fill-rule="evenodd" clip-rule="evenodd" d="M0.692922 11.8929C0.302392 12.2834 0.302392 12.9166 0.692922 13.3071C1.08344 13.6977 1.71661 13.6977 2.10713 13.3071L7.00002 8.41422L11.8929 13.3071C12.2834 13.6977 12.9166 13.6977 13.3071 13.3071C13.6977 12.9166 13.6977 12.2834 13.3071 11.8929L8.41422 7.00002L13.3071 2.10713C13.6977 1.71661 13.6977 1.08344 13.3071 0.692922C12.9166 0.302392 12.2834 0.302392 11.8929 0.692922L7.00002 5.58581L2.10713 0.692922C1.71661 0.302392 1.08344 0.302392 0.692922 0.692922C0.302392 1.08344 0.302392 1.71661 0.692922 2.10713L5.58581 7.00002L0.692922 11.8929Z" fill="white"/>
</svg>
