<svg width="58" height="54" viewBox="0 0 58 54" fill="none" xmlns="http://www.w3.org/2000/svg">
<path d="M56.828 24.206L34.578 1.95598C33.017 0.393985 30.482 0.393985 28.922 1.95598C27.359 3.51898 27.359 6.28299 28.922 7.84599L43.843 23H4C1.791 23 0 24.791 0 27C0 29.209 1.791 31 4 31H44.843L29.047 46.564C27.484 48.126 27.484 50.542 29.047 52.104C29.827 52.885 30.852 53.218 31.875 53.218C32.898 53.218 33.923 52.798 34.703 52.017L56.828 29.877C58.391 28.316 58.391 25.769 56.828 24.206Z" fill="white"/>
</svg>
